<?xml version="1.0" encoding="UTF-8"?>
<svg id="Layer_1" data-name="Layer 1" xmlns="http://www.w3.org/2000/svg" viewBox="0 0 115.21 153.21">
  <defs>
    <style>
      .cls-1 {
        fill-rule: evenodd;
      }
    </style>
  </defs>
  <path d="m77.03,45.73v-13.71c0-1.05-.45-1.98-1.18-2.66-.74-.69-1.73-1.11-2.85-1.11h-30.79c-1.12,0-2.11.42-2.85,1.11s-1.18,1.62-1.18,2.66v13.71c6.18-1.95,12.74-2.99,19.43-2.99s13.22,1.02,19.43,2.99h0Z"/>
  <path class="cls-1" d="m20.83,14.99c.26-.63.54-1.23.86-1.86,1.47-2.72,3.71-5.09,6.4-6.82,2.59-1.68,5.67-2.72,8.8-2.9,2.78-.15,5.5.36,8,1.56,3.78,1.8,6.27,5.06,7.91,8.59,2.27,4.88,3.23,10.77,3.33,16.1,0,.75.67,1.35,1.47,1.32.8,0,1.44-.63,1.41-1.38-.13-5.66-1.15-11.91-3.58-17.12-1.92-4.16-4.86-7.84-9.25-9.94-2.94-1.41-6.18-2.03-9.47-1.83-3.68.21-7.23,1.44-10.27,3.38-2.21,1.41-4.13,3.17-5.67,5.21v5.72l.06-.03Z"/>
  <path class="cls-1" d="m0,99.35c0-14.87,6.47-28.34,16.87-38.09,10.43-9.76,24.83-15.77,40.74-15.77s30.31,6.04,40.74,15.77c10.43,9.76,16.87,23.22,16.87,38.09s-6.47,28.34-16.87,38.09c-10.43,9.76-24.83,15.77-40.74,15.77s-30.31-6.04-40.74-15.77C6.43,127.69,0,114.22,0,99.35h0Zm95.66,0c0,.75.64,1.35,1.44,1.35s1.44-.6,1.44-1.35c0-10.56-4.58-20.14-12-27.05-7.39-6.91-17.63-11.22-28.93-11.22-.8,0-1.44.6-1.44,1.35s.64,1.35,1.44,1.35c10.5,0,20,3.98,26.88,10.41,6.88,6.43,11.14,15.32,11.14,25.14l.03.03Z"/>
  <path class="cls-1" d="m5.63,0l8.58,6.88v-3.35l.13-.03,1.15,2.18L16.68.03h.13l2.46,6.88L27.88,1.17l.1.09-6.14,6.85h3.62l.03.12-3.55,2.18h8.45l.03.12-7.26,2.27,3.55,1.11.13.03-.13.06-2.43,1.14,3.71,6.91-.1.06-7.33-5.71v4.52l-.13.03-2.43-3.41-4.9,5.74-.13-.06,1.22-5.68-7.33,3.44-.06-.09,4.9-4.58-3.62-1.14v-.12l4.67-1.08-7.17-1.11v-.12l6.11-1.14-2.4-2.24-.13-.09h2.53L5.54.09l.1-.09Z"/>
</svg>